<svg xmlns="http://www.w3.org/2000/svg" width="60" height="60" fill="none"><rect width="60" height="60" fill="#EFF3FA" rx="20"/><g filter="url(#a)"><path fill="url(#b)" d="M25.5 29.998v3.333h-3.334v-3.333H25.5Z"/><path fill="url(#c)" d="M25.5 39.998v-3.333h-3.334v3.333H25.5Z"/><path fill="url(#d)" d="M28.833 29.998h3.333v3.333h-3.333v-3.333Z"/><path fill="url(#e)" d="M32.166 36.665h-3.333v3.333h3.333v-3.333Z"/><path fill="url(#f)" d="M38.833 29.998v3.333H35.5v-3.333h3.333Z"/><path fill="url(#g)" fill-rule="evenodd" d="M20.5 13.332h3.333v3.333h13.333v-3.333H40.5v3.333h5V43.33a5 5 0 0 1-5 5h-20a5 5 0 0 1-5-5V16.665h5v-3.333Zm21.666 11.666H18.833v18.333c0 .921.746 1.667 1.667 1.667h20c.92 0 1.666-.746 1.666-1.666V24.997Z" clip-rule="evenodd"/></g><defs><linearGradient id="b" x1="30.5" x2="30.5" y1="13.332" y2="48.651" gradientUnits="userSpaceOnUse"><stop stop-color="#E1E7F3"/><stop offset="1" stop-color="#CDD4E1"/></linearGradient><linearGradient id="c" x1="30.5" x2="30.5" y1="13.332" y2="48.651" gradientUnits="userSpaceOnUse"><stop stop-color="#E1E7F3"/><stop offset="1" stop-color="#CDD4E1"/></linearGradient><linearGradient id="d" x1="30.5" x2="30.5" y1="13.332" y2="48.651" gradientUnits="userSpaceOnUse"><stop stop-color="#E1E7F3"/><stop offset="1" stop-color="#CDD4E1"/></linearGradient><linearGradient id="e" x1="30.5" x2="30.5" y1="13.332" y2="48.651" gradientUnits="userSpaceOnUse"><stop stop-color="#E1E7F3"/><stop offset="1" stop-color="#CDD4E1"/></linearGradient><linearGradient id="f" x1="30.5" x2="30.5" y1="13.332" y2="48.651" gradientUnits="userSpaceOnUse"><stop stop-color="#E1E7F3"/><stop offset="1" stop-color="#CDD4E1"/></linearGradient><linearGradient id="g" x1="30.5" x2="30.5" y1="13.332" y2="48.651" gradientUnits="userSpaceOnUse"><stop stop-color="#E1E7F3"/><stop offset="1" stop-color="#CDD4E1"/></linearGradient><filter id="a" width="33" height="37" x="15.5" y="11.332" color-interpolation-filters="sRGB" filterUnits="userSpaceOnUse"><feFlood flood-opacity="0" result="BackgroundImageFix"/><feBlend in="SourceGraphic" in2="BackgroundImageFix" result="shape"/><feColorMatrix in="SourceAlpha" result="hardAlpha" values="0 0 0 0 0 0 0 0 0 0 0 0 0 0 0 0 0 0 127 0"/><feOffset dx="3" dy="-2"/><feGaussianBlur stdDeviation="12.25"/><feComposite in2="hardAlpha" k2="-1" k3="1" operator="arithmetic"/><feColorMatrix values="0 0 0 0 0.708385 0 0 0 0 0.756897 0 0 0 0 0.845833 0 0 0 1 0"/><feBlend in2="shape" result="effect1_innerShadow_603_6398"/></filter></defs></svg>