<svg xmlns="http://www.w3.org/2000/svg" width="60" height="60" fill="none"><g filter="url(#a)"><rect width="60" height="60" fill="url(#b)" rx="20"/><g filter="url(#c)"><rect width="48" height="48" x="6" y="6" fill="url(#d)" rx="14"/></g><g filter="url(#e)"><path fill="url(#f)" d="M15.144 20.837C16.796 40.608 30 45.002 30 45.002s13.204-4.394 14.856-24.166c.068-.808.116-1.641.143-2.5.03-.92-.721-1.667-1.643-1.667H16.644c-.922 0-1.672.746-1.643 1.666.027.86.075 1.693.143 2.5ZM25.59 36.799c-2.618-2.903-5.509-7.82-6.257-15.962H30V40.4c-.071-.04-.145-.082-.22-.127-1.104-.653-2.637-1.751-4.19-3.474Z"/></g></g><defs><linearGradient id="b" x1="30" x2="30" y1="0" y2="60" gradientUnits="userSpaceOnUse"><stop stop-color="#FF7E00"/><stop offset="1" stop-color="#FCB168"/></linearGradient><linearGradient id="d" x1="6" x2="54" y1="6" y2="54" gradientUnits="userSpaceOnUse"><stop offset=".42" stop-color="#fff" stop-opacity="0"/><stop offset="1" stop-color="#fff" stop-opacity=".5"/></linearGradient><linearGradient id="f" x1="30" x2="43" y1="16.67" y2="45.986" gradientUnits="userSpaceOnUse"><stop stop-color="#C22F18"/><stop offset="1" stop-color="#FF3B19"/></linearGradient><filter id="a" width="63" height="63" x="-2" y="-2" color-interpolation-filters="sRGB" filterUnits="userSpaceOnUse"><feFlood flood-opacity="0" result="BackgroundImageFix"/><feBlend in="SourceGraphic" in2="BackgroundImageFix" result="shape"/><feColorMatrix in="SourceAlpha" result="hardAlpha" values="0 0 0 0 0 0 0 0 0 0 0 0 0 0 0 0 0 0 127 0"/><feOffset dx="1" dy="1"/><feGaussianBlur stdDeviation="4.45"/><feComposite in2="hardAlpha" k2="-1" k3="1" operator="arithmetic"/><feColorMatrix values="0 0 0 0 1 0 0 0 0 1 0 0 0 0 1 0 0 0 0.5 0"/><feBlend in2="shape" result="effect1_innerShadow_603_4220"/><feColorMatrix in="SourceAlpha" result="hardAlpha" values="0 0 0 0 0 0 0 0 0 0 0 0 0 0 0 0 0 0 127 0"/><feOffset dx="-2" dy="-2"/><feGaussianBlur stdDeviation="2.6"/><feComposite in2="hardAlpha" k2="-1" k3="1" operator="arithmetic"/><feColorMatrix values="0 0 0 0 1 0 0 0 0 1 0 0 0 0 1 0 0 0 0.5 0"/><feBlend in2="effect1_innerShadow_603_4220" mode="luminosity" result="effect2_innerShadow_603_4220"/></filter><filter id="c" width="50" height="50" x="5" y="5" color-interpolation-filters="sRGB" filterUnits="userSpaceOnUse"><feFlood flood-opacity="0" result="BackgroundImageFix"/><feBlend in="SourceGraphic" in2="BackgroundImageFix" result="shape"/><feGaussianBlur result="effect1_foregroundBlur_603_4220" stdDeviation=".5"/></filter><filter id="e" width="31" height="32.333" x="15" y="16.67" color-interpolation-filters="sRGB" filterUnits="userSpaceOnUse"><feFlood flood-opacity="0" result="BackgroundImageFix"/><feBlend in="SourceGraphic" in2="BackgroundImageFix" result="shape"/><feColorMatrix in="SourceAlpha" result="hardAlpha" values="0 0 0 0 0 0 0 0 0 0 0 0 0 0 0 0 0 0 127 0"/><feOffset dx="1" dy="4"/><feGaussianBlur stdDeviation="2.5"/><feComposite in2="hardAlpha" k2="-1" k3="1" operator="arithmetic"/><feColorMatrix values="0 0 0 0 0 0 0 0 0 0 0 0 0 0 0 0 0 0 0.1 0"/><feBlend in2="shape" result="effect1_innerShadow_603_4220"/></filter></defs></svg>