<svg xmlns="http://www.w3.org/2000/svg" width="60" height="60" fill="none"><g filter="url(#a)"><rect width="60" height="60" fill="#EFF3FA" rx="20"/><g filter="url(#b)"><path fill="url(#c)" fill-rule="evenodd" d="M28.833 22.501v7.5a5 5 0 0 0 2 4l4.334 2.834 2-2.667-4.334-2.834a1.667 1.667 0 0 1-.666-1.333v-7.5h-3.334Z" clip-rule="evenodd"/><path fill="url(#d)" d="M30.5 42.501c6.904 0 12.5-5.596 12.5-12.5 0-6.903-5.596-12.5-12.5-12.5S18 23.098 18 30.001h-3.333c0-8.744 7.088-15.833 15.833-15.833 8.744 0 15.833 7.089 15.833 15.833 0 8.745-7.089 15.833-15.833 15.833-5.359 0-10.095-2.661-12.96-6.735a7.557 7.557 0 0 1-.058.708l-.315 3.527h-3.334v-10h10v3.334l-3.7.32A12.488 12.488 0 0 0 30.5 42.5Z"/></g></g><defs><linearGradient id="c" x1="30.083" x2="30.083" y1="14.168" y2="46.123" gradientUnits="userSpaceOnUse"><stop stop-color="#E1E7F3"/><stop offset="1" stop-color="#CDD4E1"/></linearGradient><linearGradient id="d" x1="30.083" x2="30.083" y1="14.168" y2="46.123" gradientUnits="userSpaceOnUse"><stop stop-color="#E1E7F3"/><stop offset="1" stop-color="#CDD4E1"/></linearGradient><filter id="a" width="62" height="62" x="-2" y="-2" color-interpolation-filters="sRGB" filterUnits="userSpaceOnUse"><feFlood flood-opacity="0" result="BackgroundImageFix"/><feBlend in="SourceGraphic" in2="BackgroundImageFix" result="shape"/><feColorMatrix in="SourceAlpha" result="hardAlpha" values="0 0 0 0 0 0 0 0 0 0 0 0 0 0 0 0 0 0 127 0"/><feOffset dx="-2" dy="-2"/><feGaussianBlur stdDeviation="2.6"/><feComposite in2="hardAlpha" k2="-1" k3="1" operator="arithmetic"/><feColorMatrix values="0 0 0 0 1 0 0 0 0 1 0 0 0 0 1 0 0 0 0.5 0"/><feBlend in2="shape" mode="luminosity" result="effect1_innerShadow_603_6392"/></filter><filter id="b" width="35.5" height="33.667" x="13.833" y="12.168" color-interpolation-filters="sRGB" filterUnits="userSpaceOnUse"><feFlood flood-opacity="0" result="BackgroundImageFix"/><feBlend in="SourceGraphic" in2="BackgroundImageFix" result="shape"/><feColorMatrix in="SourceAlpha" result="hardAlpha" values="0 0 0 0 0 0 0 0 0 0 0 0 0 0 0 0 0 0 127 0"/><feOffset dx="3" dy="-2"/><feGaussianBlur stdDeviation="12.25"/><feComposite in2="hardAlpha" k2="-1" k3="1" operator="arithmetic"/><feColorMatrix values="0 0 0 0 0.708385 0 0 0 0 0.756897 0 0 0 0 0.845833 0 0 0 1 0"/><feBlend in2="shape" result="effect1_innerShadow_603_6392"/></filter></defs></svg>