<svg xmlns="http://www.w3.org/2000/svg" width="60" height="60" fill="none"><rect width="60" height="60" fill="#EFF3FA" rx="20"/><g filter="url(#a)"><path fill="url(#b)" d="M15.144 20.837C16.796 40.609 30 45.003 30 45.003s13.204-4.394 14.856-24.166c.068-.808.116-1.641.143-2.5.03-.92-.721-1.667-1.643-1.667H16.644c-.922 0-1.672.746-1.643 1.666.027.86.075 1.693.143 2.5ZM25.59 36.799c-2.618-2.903-5.509-7.82-6.257-15.962H30V40.4l-.22-.128c-1.104-.653-2.637-1.751-4.19-3.474Z"/></g><defs><linearGradient id="b" x1="30" x2="30" y1="16.67" y2="45.262" gradientUnits="userSpaceOnUse"><stop stop-color="#E1E7F3"/><stop offset="1" stop-color="#CDD4E1"/></linearGradient><filter id="a" width="33" height="30.333" x="15" y="14.67" color-interpolation-filters="sRGB" filterUnits="userSpaceOnUse"><feFlood flood-opacity="0" result="BackgroundImageFix"/><feBlend in="SourceGraphic" in2="BackgroundImageFix" result="shape"/><feColorMatrix in="SourceAlpha" result="hardAlpha" values="0 0 0 0 0 0 0 0 0 0 0 0 0 0 0 0 0 0 127 0"/><feOffset dx="3" dy="-2"/><feGaussianBlur stdDeviation="12.25"/><feComposite in2="hardAlpha" k2="-1" k3="1" operator="arithmetic"/><feColorMatrix values="0 0 0 0 0.708385 0 0 0 0 0.756897 0 0 0 0 0.845833 0 0 0 1 0"/><feBlend in2="shape" result="effect1_innerShadow_603_6395"/></filter></defs></svg>