<svg xmlns="http://www.w3.org/2000/svg" width="60" height="60" fill="none"><g filter="url(#a)"><rect width="60" height="60" fill="url(#b)" rx="20"/><g filter="url(#c)"><rect width="48" height="48" x="6" y="6" fill="url(#d)" rx="14"/></g><g filter="url(#e)"><path fill="url(#f)" fill-rule="evenodd" d="M28.333 22.501v7.5a5 5 0 0 0 2 4l4.334 2.834 2-2.667-4.334-2.834a1.667 1.667 0 0 1-.666-1.333v-7.5h-3.334Z" clip-rule="evenodd"/><path fill="url(#g)" d="M30 42.501c6.904 0 12.5-5.596 12.5-12.5 0-6.903-5.596-12.5-12.5-12.5s-12.5 5.597-12.5 12.5h-3.333c0-8.744 7.088-15.833 15.833-15.833 8.744 0 15.833 7.089 15.833 15.833 0 8.745-7.089 15.833-15.833 15.833-5.359 0-10.095-2.661-12.96-6.735a7.557 7.557 0 0 1-.058.708l-.315 3.527h-3.334v-10h10v3.334l-3.7.32A12.488 12.488 0 0 0 30 42.5Z"/></g></g><defs><linearGradient id="b" x1="30" x2="30" y1="0" y2="60" gradientUnits="userSpaceOnUse"><stop stop-color="#FFB500"/><stop offset="1" stop-color="#FCD168"/></linearGradient><linearGradient id="d" x1="6" x2="54" y1="6" y2="54" gradientUnits="userSpaceOnUse"><stop offset=".42" stop-color="#fff" stop-opacity="0"/><stop offset="1" stop-color="#fff" stop-opacity=".5"/></linearGradient><linearGradient id="f" x1="29.583" x2="44.416" y1="14.168" y2="46.59" gradientUnits="userSpaceOnUse"><stop stop-color="#C25418"/><stop offset="1" stop-color="#FF6D19"/></linearGradient><linearGradient id="g" x1="29.583" x2="44.416" y1="14.168" y2="46.59" gradientUnits="userSpaceOnUse"><stop stop-color="#C25418"/><stop offset="1" stop-color="#FF6D19"/></linearGradient><filter id="a" width="63" height="63" x="-2" y="-2" color-interpolation-filters="sRGB" filterUnits="userSpaceOnUse"><feFlood flood-opacity="0" result="BackgroundImageFix"/><feBlend in="SourceGraphic" in2="BackgroundImageFix" result="shape"/><feColorMatrix in="SourceAlpha" result="hardAlpha" values="0 0 0 0 0 0 0 0 0 0 0 0 0 0 0 0 0 0 127 0"/><feOffset dx="1" dy="1"/><feGaussianBlur stdDeviation="4.45"/><feComposite in2="hardAlpha" k2="-1" k3="1" operator="arithmetic"/><feColorMatrix values="0 0 0 0 1 0 0 0 0 1 0 0 0 0 1 0 0 0 0.5 0"/><feBlend in2="shape" result="effect1_innerShadow_603_4216"/><feColorMatrix in="SourceAlpha" result="hardAlpha" values="0 0 0 0 0 0 0 0 0 0 0 0 0 0 0 0 0 0 127 0"/><feOffset dx="-2" dy="-2"/><feGaussianBlur stdDeviation="2.6"/><feComposite in2="hardAlpha" k2="-1" k3="1" operator="arithmetic"/><feColorMatrix values="0 0 0 0 1 0 0 0 0 1 0 0 0 0 1 0 0 0 0.5 0"/><feBlend in2="effect1_innerShadow_603_4216" mode="luminosity" result="effect2_innerShadow_603_4216"/></filter><filter id="c" width="50" height="50" x="5" y="5" color-interpolation-filters="sRGB" filterUnits="userSpaceOnUse"><feFlood flood-opacity="0" result="BackgroundImageFix"/><feBlend in="SourceGraphic" in2="BackgroundImageFix" result="shape"/><feGaussianBlur result="effect1_foregroundBlur_603_4216" stdDeviation=".5"/></filter><filter id="e" width="33.5" height="35.667" x="13.333" y="14.168" color-interpolation-filters="sRGB" filterUnits="userSpaceOnUse"><feFlood flood-opacity="0" result="BackgroundImageFix"/><feBlend in="SourceGraphic" in2="BackgroundImageFix" result="shape"/><feColorMatrix in="SourceAlpha" result="hardAlpha" values="0 0 0 0 0 0 0 0 0 0 0 0 0 0 0 0 0 0 127 0"/><feOffset dx="1" dy="4"/><feGaussianBlur stdDeviation="2.5"/><feComposite in2="hardAlpha" k2="-1" k3="1" operator="arithmetic"/><feColorMatrix values="0 0 0 0 0 0 0 0 0 0 0 0 0 0 0 0 0 0 0.1 0"/><feBlend in2="shape" result="effect1_innerShadow_603_4216"/></filter></defs></svg>