<svg xmlns="http://www.w3.org/2000/svg" width="60" height="60" fill="none"><rect width="60" height="60" fill="#EFF3FA" rx="20"/><g filter="url(#a)"><path fill="url(#b)" fill-rule="evenodd" d="M21.25 28.334a7.083 7.083 0 1 0 0-14.166 7.083 7.083 0 0 0 0 14.166Zm0-4.166a2.917 2.917 0 1 0 0-5.833 2.917 2.917 0 0 0 0 5.833Z" clip-rule="evenodd"/><path fill="url(#c)" fill-rule="evenodd" d="M38.75 45.834a7.083 7.083 0 1 0 0-14.166 7.083 7.083 0 0 0 0 14.166Zm0-4.166a2.917 2.917 0 1 0 0-5.833 2.917 2.917 0 0 0 0 5.833Z" clip-rule="evenodd"/><path fill="url(#d)" d="m39.65 15.252 3.192 2.678-22.497 26.812-3.192-2.679L39.65 15.252Z"/></g><defs><linearGradient id="b" x1="30" x2="30" y1="14.168" y2="46.123" gradientUnits="userSpaceOnUse"><stop stop-color="#E1E7F3"/><stop offset="1" stop-color="#CDD4E1"/></linearGradient><linearGradient id="c" x1="30" x2="30" y1="14.168" y2="46.123" gradientUnits="userSpaceOnUse"><stop stop-color="#E1E7F3"/><stop offset="1" stop-color="#CDD4E1"/></linearGradient><linearGradient id="d" x1="30" x2="30" y1="14.168" y2="46.123" gradientUnits="userSpaceOnUse"><stop stop-color="#E1E7F3"/><stop offset="1" stop-color="#CDD4E1"/></linearGradient><filter id="a" width="34.667" height="33.667" x="14.167" y="12.168" color-interpolation-filters="sRGB" filterUnits="userSpaceOnUse"><feFlood flood-opacity="0" result="BackgroundImageFix"/><feBlend in="SourceGraphic" in2="BackgroundImageFix" result="shape"/><feColorMatrix in="SourceAlpha" result="hardAlpha" values="0 0 0 0 0 0 0 0 0 0 0 0 0 0 0 0 0 0 127 0"/><feOffset dx="3" dy="-2"/><feGaussianBlur stdDeviation="12.25"/><feComposite in2="hardAlpha" k2="-1" k3="1" operator="arithmetic"/><feColorMatrix values="0 0 0 0 0.708385 0 0 0 0 0.756897 0 0 0 0 0.845833 0 0 0 1 0"/><feBlend in2="shape" result="effect1_innerShadow_603_6401"/></filter></defs></svg>