<svg xmlns="http://www.w3.org/2000/svg" width="343" height="300" fill="none"><g clip-path="url(#a)"><path fill="url(#b)" d="M0 208h343l-17.759 68.077C321.565 290.168 308.839 300 294.277 300H48.723c-14.562 0-27.288-9.832-30.964-23.923L0 208Z"/><g filter="url(#c)"><path fill="#FFF3C1" d="M0 32C0 14.327 14.327 0 32 0h279c17.673 0 32 14.327 32 32v176c0 17.673-14.327 32-32 32H32c-17.673 0-32-14.327-32-32V32Z"/></g><g filter="url(#d)"><path fill="url(#e)" d="M177.709 290c13.838-1.794 24.291-9.984 24.291-19.817C202 259.036 188.569 250 172 250c-16.569 0-30 9.036-30 20.183 0 9.824 10.435 18.009 24.255 19.812l3.245-30.408h4.5l2 16.398-4 4.289 5 3.91.709 5.816Z"/></g></g><defs><linearGradient id="b" x1="172" x2="171.5" y1="240" y2="300" gradientUnits="userSpaceOnUse"><stop stop-color="#FFEDA2"/><stop offset=".764" stop-color="#EFF3FA"/></linearGradient><linearGradient id="e" x1="172" x2="172" y1="250" y2="290.365" gradientUnits="userSpaceOnUse"><stop stop-color="#F9F9B8"/><stop offset=".657" stop-color="#CDD4E1"/></linearGradient><filter id="c" width="343" height="257" x="0" y="-13" color-interpolation-filters="sRGB" filterUnits="userSpaceOnUse"><feFlood flood-opacity="0" result="BackgroundImageFix"/><feBlend in="SourceGraphic" in2="BackgroundImageFix" result="shape"/><feColorMatrix in="SourceAlpha" result="hardAlpha" values="0 0 0 0 0 0 0 0 0 0 0 0 0 0 0 0 0 0 127 0"/><feOffset dy="4"/><feGaussianBlur stdDeviation="5.65"/><feComposite in2="hardAlpha" k2="-1" k3="1" operator="arithmetic"/><feColorMatrix values="0 0 0 0 1 0 0 0 0 1 0 0 0 0 1 0 0 0 0.5 0"/><feBlend in2="shape" result="effect1_innerShadow_603_6716"/><feColorMatrix in="SourceAlpha" result="hardAlpha" values="0 0 0 0 0 0 0 0 0 0 0 0 0 0 0 0 0 0 127 0"/><feOffset dy="-13"/><feGaussianBlur stdDeviation="8.85"/><feComposite in2="hardAlpha" k2="-1" k3="1" operator="arithmetic"/><feColorMatrix values="0 0 0 0 1 0 0 0 0 1 0 0 0 0 1 0 0 0 0.5 0"/><feBlend in2="effect1_innerShadow_603_6716" result="effect2_innerShadow_603_6716"/></filter><filter id="d" width="63" height="42" x="142" y="248" color-interpolation-filters="sRGB" filterUnits="userSpaceOnUse"><feFlood flood-opacity="0" result="BackgroundImageFix"/><feBlend in="SourceGraphic" in2="BackgroundImageFix" result="shape"/><feColorMatrix in="SourceAlpha" result="hardAlpha" values="0 0 0 0 0 0 0 0 0 0 0 0 0 0 0 0 0 0 127 0"/><feOffset dx="3" dy="-2"/><feGaussianBlur stdDeviation="12.25"/><feComposite in2="hardAlpha" k2="-1" k3="1" operator="arithmetic"/><feColorMatrix values="0 0 0 0 0.858333 0 0 0 0 0.799383 0 0 0 0 0.704549 0 0 0 1 0"/><feBlend in2="shape" result="effect1_innerShadow_603_6716"/></filter><clipPath id="a"><path fill="#fff" d="M0 0h343v300H0z"/></clipPath></defs></svg>