<svg xmlns="http://www.w3.org/2000/svg" width="60" height="60" fill="none"><g fill="#fff" filter="url(#a)"><rect width="60" height="60" fill-opacity=".1" rx="20"/><path fill-rule="evenodd" d="M30 46.667c9.205 0 16.667-7.462 16.667-16.667 0-9.205-7.462-16.666-16.667-16.666-9.205 0-16.667 7.461-16.667 16.666S20.795 46.667 30 46.667Zm5.833-18.334a2.5 2.5 0 1 0 0-5 2.5 2.5 0 0 0 0 5Zm-11.241 9.945c4.359-1.15 7.237-1.611 12.075-1.611v-3.334c-5.163 0-8.328.509-12.926 1.722l.85 3.223Zm-.425-9.944a2.5 2.5 0 1 0 0-5 2.5 2.5 0 0 0 0 5Z" clip-rule="evenodd"/></g><defs><filter id="a" width="62" height="62" x="-2" y="-2" color-interpolation-filters="sRGB" filterUnits="userSpaceOnUse"><feFlood flood-opacity="0" result="BackgroundImageFix"/><feBlend in="SourceGraphic" in2="BackgroundImageFix" result="shape"/><feColorMatrix in="SourceAlpha" result="hardAlpha" values="0 0 0 0 0 0 0 0 0 0 0 0 0 0 0 0 0 0 127 0"/><feOffset dx="-2" dy="-2"/><feGaussianBlur stdDeviation="3"/><feComposite in2="hardAlpha" k2="-1" k3="1" operator="arithmetic"/><feColorMatrix values="0 0 0 0 0.784314 0 0 0 0 0.819608 0 0 0 0 0.886275 0 0 0 0.2 0"/><feBlend in2="shape" result="effect1_innerShadow_603_11540"/></filter></defs></svg>