<svg xmlns="http://www.w3.org/2000/svg" width="60" height="60" fill="none"><path stroke="#EFF3FA" stroke-dasharray="6 6" stroke-width="2" d="M1.518 47.656a19.865 19.865 0 0 1-1.349-5.044l.992-.13C1.055 41.672 1 40.843 1 40v-2.5H0v-5h1v-5H0v-5h1V20c0-.842.055-1.67.16-2.483l-.991-.13c.23-1.763.69-3.455 1.349-5.043l.923.383a18.978 18.978 0 0 1 2.484-4.293l-.793-.61a20.119 20.119 0 0 1 3.692-3.692l.61.793a18.979 18.979 0 0 1 4.293-2.484l-.383-.923A19.865 19.865 0 0 1 17.388.169l.13.992C18.328 1.055 19.157 1 20 1h2.5V0h5v1h5V0h5v1H40c.842 0 1.67.055 2.483.16l.13-.991c1.763.23 3.455.69 5.043 1.349l-.383.923a18.98 18.98 0 0 1 4.293 2.484l.61-.793a20.118 20.118 0 0 1 3.692 3.692l-.793.61a18.984 18.984 0 0 1 2.484 4.293l.923-.383a19.867 19.867 0 0 1 1.349 5.044l-.992.13c.106.811.161 1.64.161 2.482v2.5h1v5h-1v5h1v5h-1V40c0 .842-.055 1.67-.16 2.483l.991.13a19.867 19.867 0 0 1-1.349 5.043l-.923-.383a18.986 18.986 0 0 1-2.484 4.293l.793.61a20.118 20.118 0 0 1-3.692 3.692l-.61-.793a18.986 18.986 0 0 1-4.293 2.484l.383.923a19.867 19.867 0 0 1-5.044 1.349l-.13-.992c-.811.106-1.64.161-2.482.161h-2.5v1h-5v-1h-5v1h-5v-1H20c-.842 0-1.67-.055-2.483-.16l-.13.991a19.867 19.867 0 0 1-5.043-1.349l.383-.923a18.984 18.984 0 0 1-4.293-2.484l-.61.793a20.118 20.118 0 0 1-3.692-3.692l.793-.61a18.98 18.98 0 0 1-2.484-4.293l-.923.383Z"/><path fill="#DEE7F7" fill-rule="evenodd" d="M30 46.667c9.205 0 16.667-7.462 16.667-16.667 0-9.205-7.462-16.667-16.667-16.667-9.205 0-16.667 7.462-16.667 16.667 0 9.205 7.462 16.667 16.667 16.667Zm5.833-18.334a2.5 2.5 0 1 0 0-5 2.5 2.5 0 0 0 0 5Zm-11.241 9.945c4.359-1.15 7.237-1.611 12.075-1.611v-3.334c-5.163 0-8.328.509-12.926 1.722l.85 3.223Zm-.425-9.945a2.5 2.5 0 1 0 0-5 2.5 2.5 0 0 0 0 5Z" clip-rule="evenodd"/></svg>