<svg xmlns="http://www.w3.org/2000/svg" width="60" height="60" fill="none"><g filter="url(#a)"><rect width="60" height="60" fill="url(#b)" rx="20"/><g filter="url(#c)"><rect width="48" height="48" x="6" y="6" fill="url(#d)" rx="14"/></g><g filter="url(#e)"><path fill="url(#f)" d="M25 29.998v3.333h-3.334v-3.333H25Z"/><path fill="url(#g)" d="M25 39.998v-3.333h-3.334v3.333H25Z"/><path fill="url(#h)" d="M28.333 29.998h3.334v3.333h-3.334v-3.333Z"/><path fill="url(#i)" d="M31.666 36.665h-3.333v3.333h3.334v-3.333Z"/><path fill="url(#j)" d="M38.333 29.998v3.333H35v-3.333h3.333Z"/><path fill="url(#k)" fill-rule="evenodd" d="M20 13.332h3.333v3.333h13.334v-3.333H40v3.333h5V43.33a5 5 0 0 1-5 5H20a5 5 0 0 1-5-5V16.665h5v-3.333Zm21.666 11.666H18.334v18.333c0 .921.746 1.667 1.667 1.667h20c.92 0 1.666-.746 1.666-1.666V24.997Z" clip-rule="evenodd"/></g></g><defs><linearGradient id="b" x1="30" x2="30" y1="0" y2="60" gradientUnits="userSpaceOnUse"><stop stop-color="#FF4600"/><stop offset="1" stop-color="#FC9168"/></linearGradient><linearGradient id="d" x1="6" x2="54" y1="6" y2="54" gradientUnits="userSpaceOnUse"><stop offset=".42" stop-color="#fff" stop-opacity="0"/><stop offset="1" stop-color="#fff" stop-opacity=".5"/></linearGradient><linearGradient id="f" x1="30" x2="48.259" y1="13.332" y2="46.665" gradientUnits="userSpaceOnUse"><stop stop-color="#831228"/><stop offset="1" stop-color="#FF4600"/></linearGradient><linearGradient id="g" x1="30" x2="48.259" y1="13.332" y2="46.665" gradientUnits="userSpaceOnUse"><stop stop-color="#831228"/><stop offset="1" stop-color="#FF4600"/></linearGradient><linearGradient id="h" x1="30" x2="48.259" y1="13.332" y2="46.665" gradientUnits="userSpaceOnUse"><stop stop-color="#831228"/><stop offset="1" stop-color="#FF4600"/></linearGradient><linearGradient id="i" x1="30" x2="48.259" y1="13.332" y2="46.665" gradientUnits="userSpaceOnUse"><stop stop-color="#831228"/><stop offset="1" stop-color="#FF4600"/></linearGradient><linearGradient id="j" x1="30" x2="48.259" y1="13.332" y2="46.665" gradientUnits="userSpaceOnUse"><stop stop-color="#831228"/><stop offset="1" stop-color="#FF4600"/></linearGradient><linearGradient id="k" x1="30" x2="48.259" y1="13.332" y2="46.665" gradientUnits="userSpaceOnUse"><stop stop-color="#831228"/><stop offset="1" stop-color="#FF4600"/></linearGradient><filter id="a" width="63" height="63" x="-2" y="-2" color-interpolation-filters="sRGB" filterUnits="userSpaceOnUse"><feFlood flood-opacity="0" result="BackgroundImageFix"/><feBlend in="SourceGraphic" in2="BackgroundImageFix" result="shape"/><feColorMatrix in="SourceAlpha" result="hardAlpha" values="0 0 0 0 0 0 0 0 0 0 0 0 0 0 0 0 0 0 127 0"/><feOffset dx="1" dy="1"/><feGaussianBlur stdDeviation="4.45"/><feComposite in2="hardAlpha" k2="-1" k3="1" operator="arithmetic"/><feColorMatrix values="0 0 0 0 1 0 0 0 0 1 0 0 0 0 1 0 0 0 0.5 0"/><feBlend in2="shape" result="effect1_innerShadow_603_4224"/><feColorMatrix in="SourceAlpha" result="hardAlpha" values="0 0 0 0 0 0 0 0 0 0 0 0 0 0 0 0 0 0 127 0"/><feOffset dx="-2" dy="-2"/><feGaussianBlur stdDeviation="2.6"/><feComposite in2="hardAlpha" k2="-1" k3="1" operator="arithmetic"/><feColorMatrix values="0 0 0 0 1 0 0 0 0 1 0 0 0 0 1 0 0 0 0.5 0"/><feBlend in2="effect1_innerShadow_603_4224" mode="luminosity" result="effect2_innerShadow_603_4224"/></filter><filter id="c" width="50" height="50" x="5" y="5" color-interpolation-filters="sRGB" filterUnits="userSpaceOnUse"><feFlood flood-opacity="0" result="BackgroundImageFix"/><feBlend in="SourceGraphic" in2="BackgroundImageFix" result="shape"/><feGaussianBlur result="effect1_foregroundBlur_603_4224" stdDeviation=".5"/></filter><filter id="e" width="31" height="39" x="15" y="13.332" color-interpolation-filters="sRGB" filterUnits="userSpaceOnUse"><feFlood flood-opacity="0" result="BackgroundImageFix"/><feBlend in="SourceGraphic" in2="BackgroundImageFix" result="shape"/><feColorMatrix in="SourceAlpha" result="hardAlpha" values="0 0 0 0 0 0 0 0 0 0 0 0 0 0 0 0 0 0 127 0"/><feOffset dx="1" dy="4"/><feGaussianBlur stdDeviation="2.5"/><feComposite in2="hardAlpha" k2="-1" k3="1" operator="arithmetic"/><feColorMatrix values="0 0 0 0 0 0 0 0 0 0 0 0 0 0 0 0 0 0 0.1 0"/><feBlend in2="shape" result="effect1_innerShadow_603_4224"/></filter></defs></svg>